<?xml version="1.0" encoding="utf-8"?>
<!-- Uploaded to: SVG Repo, www.svgrepo.com, Generator: SVG Repo Mixer Tools -->
<svg fill="#000000" height="800px" width="800px" version="1.1" id="Layer_1" xmlns="http://www.w3.org/2000/svg" xmlns:xlink="http://www.w3.org/1999/xlink" 
	 viewBox="0 0 64 64" enable-background="new 0 0 64 64" xml:space="preserve">
<g id="Muffin_2_">
	<path d="M60.02565,23.9307003c0-5.8125-4.6035995-10.5693007-10.3555031-10.8184004
		C47.7389488,5.4668002,40.7795486,0,32.8185501,0c-6.7079983,0-12.7797985,3.8418-15.6664982,9.8477001
		C16.9157524,9.835,16.6774521,9.8282003,16.4391518,9.8282003c-6.8730001,0-12.4647999,5.5917997-12.4647999,12.4647989
		c0,3.9622002,1.8640003,7.4907017,4.7541003,9.7756004c0.5424995,2.4412003,4.0356998,18.1546021,5.8435001,26.162899
		C15.3385515,61.6279984,18.305851,64,21.7887516,64h20.2280979c3.4408989,0,6.3929977-2.3408012,7.1782036-5.6922989
		l5.9286957-25.3255005C58.0717468,31.0454006,60.02565,27.7140999,60.02565,23.9307003z M47.2477493,57.8516006
		C46.6755486,60.2939987,44.5246506,62,42.0168495,62H21.7887516c-2.5415001,0-4.706501-1.7304001-5.2656002-4.2089005
		c-1.5373001-6.8077011-4.2941999-19.1930008-5.4182997-24.2485008c1.6198997,0.7714996,3.4238997,1.2162018,5.3343,1.2162018
		c2.6870003,0,5.3041992-0.8720016,7.4473-2.4687004c2.6933994,1.6171989,5.7660999,2.4687004,8.9320984,2.4687004
		c3.304203,0,6.4883003-0.919899,9.2598-2.6688995c1.971199,1.7264977,4.4687004,2.6688995,7.1190987,2.6688995
		c1.2649002,0,2.4746017-0.2292023,3.6040001-0.6296005L47.2477493,57.8516006z M49.1974487,32.7588005
		c-2.3881989,0-4.6245003-0.9385014-6.2972984-2.6415997C42.7062492,29.9190006,42.4474487,29.8174,42.1862488,29.8174
		c-0.1987,0-0.3988991,0.0596008-0.5718002,0.1797009c-2.5873985,1.8065987-5.6288986,2.7616997-8.7958984,2.7616997
		c-3.0179977,0-5.9393978-0.8740005-8.4476986-2.5263004c-0.3705997-0.2432003-0.8554993-0.2159004-1.1944008,0.0702991
		c-1.8813,1.5840015-4.2743988,2.4560013-6.737299,2.4560013c-5.7705002,0-10.4647999-4.6953011-10.4647999-10.4658012
		s4.6943002-10.4647989,10.4647999-10.4647989c0.4097004,0,0.8183994,0.0233994,1.2154007,0.0692997
		c0.4359989,0.0576,0.858799-0.1913996,1.033699-0.5977001C21.1208515,5.6504002,26.6672516,2,32.8185501,2
		c7.2880974,0,13.6269989,5.1767998,15.0732994,12.3077002c0.0965996,0.4775,0.589798,0.8134003,1.0727005,0.7997999
		l0.2328987-0.0049c4.8676987,0,8.8282013,3.9598999,8.8282013,8.8281002S54.0651474,32.7588005,49.1974487,32.7588005z"/>
	<path d="M31.7336521,40.0928001c-0.5523014,0-1,0.4473-1,1v12c0,0.5527,0.4476986,1,1,1c0.5521984,0,0.9999981-0.4473,0.9999981-1
		v-12C32.7336502,40.5401001,32.2858505,40.0928001,31.7336521,40.0928001z"/>
	<path d="M43.3708496,39.7743988c-0.5331993-0.1336975-1.0786018,0.1905022-1.2129021,0.7276001L38.9782524,53.219799
		c-0.1338005,0.5351028,0.1918983,1.0781021,0.7274971,1.2119026c0.0816002,0.0205002,0.1631012,0.0301971,0.2436981,0.0301971
		c0.4477005,0,0.8555031-0.3027,0.9692001-0.7577972l3.1797028-12.717701
		C44.2321472,40.4511986,43.9064484,39.9081993,43.3708496,39.7743988z"/>
	<path d="M21.8420525,40.5019989c-0.1343002-0.5370979-0.6783009-0.8612976-1.2129002-0.7276001
		c-0.5356998,0.1338005-0.8614006,0.6767998-0.7276001,1.2120018l3.1791992,12.717701
		c0.1138,0.4550972,0.5214996,0.7577972,0.9692993,0.7577972c0.0805016,0,0.1620998-0.009697,0.2436008-0.0301971
		c0.5356998-0.1338005,0.8612995-0.6767998,0.7276001-1.2119026L21.8420525,40.5019989z"/>
	<path d="M35.4958534,6.4112c-0.5220032-0.1729002-1.089901,0.1083999-1.2652016,0.6318002
		c-0.1748009,0.5233998,0.1083984,1.0897999,0.6324005,1.2646999c3.2020988,1.0692997,5.0101967,3.3485994,5.6908951,7.1747999
		c0.0859032,0.4842997,0.5078011,0.8251991,0.9834023,0.8251991c0.0580978,0,0.116703-0.0049,0.1758003-0.0156994
		c0.5439034-0.0967007,0.9062004-0.6152,0.8094978-1.1591997C41.711647,10.5712996,39.41325,7.7178001,35.4958534,6.4112z"/>
</g>
</svg>